<?xml version="1.0"?>
<svg xmlns="http://www.w3.org/2000/svg" viewBox="0 0 512 512" width="512" height="512"><g id="_01-male" data-name="01-male"><path d="M122,192c0,17.627,13.381,50.521,34.637,53.724A90.621,90.621,0,0,1,154,224V169.966h-.227c14.785-49.961,181.264-49.883,203.536.243a1.392,1.392,0,0,0,.691.8V224a92.018,92.018,0,0,1-2.567,21.714C376.648,242.45,390,209.608,390,192c0-6.871-1.813-12.009-5.543-15.71-5.866-5.821-14.593-6.352-24.759-6.332A21.937,21.937,0,0,0,363,160V96a12,12,0,0,0-6.633-10.733C323.779,68.973,299.1,60,256,60s-68.78,8.973-101.367,25.267A12,12,0,0,0,148,96v64c0,2.65,1.847,7.685,3.482,9.96-9.815.014-18.232.667-23.939,6.33C123.813,179.991,122,185.129,122,192Z"/><circle cx="308" cy="188" r="12"/><circle cx="204" cy="188" r="12"/><path d="M261.367,189.267a12,12,0,0,0-16.1,5.366l-16,32A12,12,0,0,0,240,244h16a12,12,0,0,0,3.2-23.568l7.532-15.065A12,12,0,0,0,261.367,189.267Z"/><path d="M225.811,266.638a32.013,32.013,0,0,0,60.378,0,2,2,0,0,0-1.9-2.638H227.712A2,2,0,0,0,225.811,266.638Z"/><path d="M453.794,392.642c-1.731,3.5-4.97,5.462-6.677,6.487-1.427.858-180.012,94.142-180.467,94.376a24.06,24.06,0,0,1-21.3,0c-.455-.234-179.04-93.518-180.467-94.376-1.707-1.025-4.946-2.983-6.677-6.487A37.745,37.745,0,0,0,42,423.809V496a6,6,0,0,0,6,6H464a6,6,0,0,0,6-6V423.809A37.745,37.745,0,0,0,453.794,392.642Z"/><path d="M250.828,482.829a12.009,12.009,0,0,0,10.344,0s184.4-94.623,181.747-95.417L340.433,356.666c-.071.067-.151.122-.222.191L256,456.051l-84.211-99.194c-.071-.069-.151-.124-.222-.191L69.081,387.412C66.432,388.206,250.828,482.829,250.828,482.829Z"/><path d="M68,166h6v34a6,6,0,0,0,12,0V166h6a6,6,0,0,0,0-12H68a6,6,0,0,0,0,12Z"/><path d="M74,73.737V142H86V78.606l50,18.286V96a23.867,23.867,0,0,1,13.267-21.466C183.683,57.325,210.885,48,256,48c44.52,0,70.536,8.936,105.733,26.533A23.87,23.87,0,0,1,375,96v1.732l62.081-22.447a12,12,0,0,0-.94-22.867l-177-48a12.006,12.006,0,0,0-6.315.009l-175,48A11.993,11.993,0,0,0,74,73.737Z"/><path d="M256,376c32,0,54-28.464,54-28.464v-40.45C291.2,319.542,270.66,326,256,326c-16.134,0-36.366-7.235-54-18.955v40.491S224,376,256,376Z"/></g></svg>
