<?xml version="1.0" encoding="iso-8859-1"?>
<!-- Generator: Adobe Illustrator 16.0.0, SVG Export Plug-In . SVG Version: 6.00 Build 0)  -->
<!DOCTYPE svg PUBLIC "-//W3C//DTD SVG 1.1//EN" "http://www.w3.org/Graphics/SVG/1.1/DTD/svg11.dtd">
<svg version="1.1" id="Capa_1" xmlns="http://www.w3.org/2000/svg" xmlns:xlink="http://www.w3.org/1999/xlink" x="0px" y="0px"
	 width="33.416px" height="33.416px" viewBox="0 0 33.416 33.416" style="enable-background:new 0 0 33.416 33.416;"
	 xml:space="preserve">
<g>
	<g>
		<polygon points="9.694,17.441 7.749,17.441 7.749,14.174 6.394,14.174 6.394,18.568 9.694,18.568 		"/>
		<polygon points="13.91,15.3 13.91,14.174 10.272,14.174 10.272,18.568 13.978,18.568 13.978,17.441 11.627,17.441 11.627,16.895 
			13.701,16.895 13.701,15.848 11.627,15.848 11.627,15.3 		"/>
		<polygon points="16.957,14.174 16.249,16.839 16.237,16.839 15.516,14.174 14.15,14.174 15.461,18.568 16.975,18.568 
			18.348,14.174 		"/>
		<polygon points="19.948,16.895 22.022,16.895 22.022,15.848 19.948,15.848 19.948,15.3 22.231,15.3 22.231,14.174 18.594,14.174 
			18.594,18.568 22.301,18.568 22.301,17.441 19.948,17.441 		"/>
		<polygon points="22.926,18.568 26.227,18.568 26.227,17.441 24.281,17.441 24.281,14.174 22.926,14.174 		"/>
		<path d="M11.259,20.904l-2.863,7.773H10.8l0.35-1.109h2.473l0.326,1.109h2.482l-2.832-7.773H11.259z M11.671,25.9l0.752-2.394
			h0.021l0.697,2.394H11.671z"/>
		<path d="M19.637,21.891c-0.137,0.215-0.309,0.385-0.519,0.512c-0.21,0.128-0.448,0.219-0.708,0.272
			c-0.262,0.056-0.529,0.077-0.806,0.069v1.568h1.774v4.365h2.264V21.1h-1.784C19.844,21.413,19.771,21.676,19.637,21.891z"/>
		<rect x="6.394" y="5.181" width="13.718" height="1.063"/>
		<rect x="6.394" y="7.556" width="13.718" height="1.063"/>
		<rect x="6.394" y="9.931" width="13.718" height="1.063"/>
		<path d="M24.623,0l-0.244,0.022L24.357,0H2.697v33.416h28.021V8.991V6.362V6.098L24.623,0z M29.219,31.916H4.197V1.5h19.15v5.97
			h5.871V31.916z"/>
	</g>
</g>
<g>
</g>
<g>
</g>
<g>
</g>
<g>
</g>
<g>
</g>
<g>
</g>
<g>
</g>
<g>
</g>
<g>
</g>
<g>
</g>
<g>
</g>
<g>
</g>
<g>
</g>
<g>
</g>
<g>
</g>
</svg>
